<svg xmlns="http://www.w3.org/2000/svg" width="100%" height="100%" viewBox="0 0 8192 8192" fill-rule="nonzero" stroke-linejoin="round" stroke-miterlimit="2"><path d="M4096.829 8192C1798.893 8159.426-.836 6387.889 0 4090.989.836 1796.594 1797.222 0 4095.157 0 6395.6-.835 8197.837 1801.606 8191.986 4103.517 8186.134 6389.56 6393.929 8158.591 4096.829 8192z" fill="#2466de"/><path d="M6452.167 1744.602l-168.591 354.461-843.615 1765.463-495.507 1034.492c-7.701 16.253-24.573 32.539-40.91 40.64l-2315.313 1102.44-794.311 376.967c-11.409 5.262-23.386 9.537-45.219 19.493l98.712-209.169 1407.18-2941.573c9.104-18.374 28.933-36.364 48.018-45.393l1793.687-853.72 1319.879-627.959c6.69-3.199 15.143-6.756 35.99-16.144zM2586.635 5595.299c2.689 2.389 4.393 5.346 7.082 7.734 807.274-381.811 1203.56-616.754 2014.567-1000.06L3590.378 3583.466c-387.54 809.488-618.65 1208.35-1003.743 2011.833z" fill="#fff"/></svg>
